<svg xmlns="http://www.w3.org/2000/svg" width="512" height="512" viewBox="0 0 512 512">
  <rect width="512" height="512" rx="96" fill="#4A90E2" />
  <path d="M147 356h218c11 0 20-9 20-20v-40c0-11-9-20-20-20H147c-11 0-20 9-20 20v40c0 11 9 20 20 20z" fill="#fff" />
  <path d="M156 156h200c11 0 20 9 20 20v20c0 11-9 20-20 20H156c-11 0-20-9-20-20v-20c0-11 9-20 20-20z" fill="#fff" opacity="0.9" />
  <path d="M156 236h200c11 0 20 9 20 20v20c0 11-9 20-20 20H156c-11 0-20-9-20-20v-20c0-11 9-20 20-20z" fill="#fff" opacity="0.8" />
</svg>
